<svg id="Capa_1" enable-background="new 0 0 512 512" height="512" viewBox="0 0 512 512" width="512" xmlns="http://www.w3.org/2000/svg"><g><path d="m192 96-32 42.561v149.439l-16 32-16-32v-149.439l-32-42.561 32-96h32z" fill="#d580ff"/><path d="m192 288v176c0 26.561-21.439 48-48 48s-48-21.439-48-48v-176h32l16 32 16-32z" fill="#f9f"/><path d="m352 357.879v-203.758c37.201-13.225 64-48.383 64-90.121 0-24.699-9.59-46.988-24.914-64h-.117-38.969v64h-64v-64h-39.086c-15.324 17.012-24.914 39.301-24.914 64 0 41.738 26.799 76.896 64 90.121v203.758c-37.201 13.225-64 48.383-64 90.121 0 24.699 9.59 46.988 24.914 64h.117 38.969v-64h64v64h38.969.117c15.324-17.012 24.914-39.301 24.914-64 0-41.738-26.799-76.896-64-90.121z" fill="#f9f"/><path d="m128 288h32v32h-32z" fill="#96f"/></g></svg>